<svg xmlns="http://www.w3.org/2000/svg" viewBox="80 110 640 480" width="800" height="600">
<defs>
<linearGradient id="bg" x1="0" y1="0" x2="0" y2="1"><stop offset="0" stop-color="#f4eee2"/><stop offset="1" stop-color="#e9dfcc"/></linearGradient>
<linearGradient id="front" x1="0" y1="0" x2="0" y2="1"><stop offset="0" stop-color="#c9955a"/><stop offset="1" stop-color="#a8743f"/></linearGradient>
<linearGradient id="side" x1="0" y1="0" x2="1" y2="0"><stop offset="0" stop-color="#9c6a37"/><stop offset="1" stop-color="#b98450"/></linearGradient>
<linearGradient id="inner" x1="0" y1="0" x2="0" y2="1"><stop offset="0" stop-color="#6e4a26"/><stop offset="1" stop-color="#8d6035"/></linearGradient>
<radialGradient id="abedynka-jablka-5kg0" cx="0.35" cy="0.3" r="0.85"><stop offset="0" stop-color="#f6c46a"/><stop offset="0.55" stop-color="#dd5a32"/><stop offset="1" stop-color="#9a2a20"/></radialGradient><radialGradient id="abedynka-jablka-5kg1" cx="0.35" cy="0.3" r="0.85"><stop offset="0" stop-color="#f0735a"/><stop offset="0.55" stop-color="#c8322a"/><stop offset="1" stop-color="#7e1a1c"/></radialGradient><radialGradient id="abedynka-jablka-5kg2" cx="0.35" cy="0.3" r="0.85"><stop offset="0" stop-color="#f7a35c"/><stop offset="0.55" stop-color="#d23f2e"/><stop offset="1" stop-color="#86231f"/></radialGradient><radialGradient id="abedynka-jablka-5kg3" cx="0.35" cy="0.3" r="0.85"><stop offset="0" stop-color="#f6c46a"/><stop offset="0.55" stop-color="#dd5a32"/><stop offset="1" stop-color="#9a2a20"/></radialGradient><radialGradient id="abedynka-jablka-5kg4" cx="0.35" cy="0.3" r="0.85"><stop offset="0" stop-color="#f7a35c"/><stop offset="0.55" stop-color="#d23f2e"/><stop offset="1" stop-color="#86231f"/></radialGradient><radialGradient id="abedynka-jablka-5kg5" cx="0.35" cy="0.3" r="0.85"><stop offset="0" stop-color="#f0735a"/><stop offset="0.55" stop-color="#c8322a"/><stop offset="1" stop-color="#7e1a1c"/></radialGradient><radialGradient id="abedynka-jablka-5kg6" cx="0.35" cy="0.3" r="0.85"><stop offset="0" stop-color="#f6c46a"/><stop offset="0.55" stop-color="#dd5a32"/><stop offset="1" stop-color="#9a2a20"/></radialGradient><radialGradient id="abedynka-jablka-5kg7" cx="0.35" cy="0.3" r="0.85"><stop offset="0" stop-color="#f7a35c"/><stop offset="0.55" stop-color="#d23f2e"/><stop offset="1" stop-color="#86231f"/></radialGradient><radialGradient id="abedynka-jablka-5kg8" cx="0.35" cy="0.3" r="0.85"><stop offset="0" stop-color="#f0735a"/><stop offset="0.55" stop-color="#c8322a"/><stop offset="1" stop-color="#7e1a1c"/></radialGradient><radialGradient id="abedynka-jablka-5kg9" cx="0.35" cy="0.3" r="0.85"><stop offset="0" stop-color="#f0735a"/><stop offset="0.55" stop-color="#c8322a"/><stop offset="1" stop-color="#7e1a1c"/></radialGradient><radialGradient id="abedynka-jablka-5kg10" cx="0.35" cy="0.3" r="0.85"><stop offset="0" stop-color="#f6c46a"/><stop offset="0.55" stop-color="#dd5a32"/><stop offset="1" stop-color="#9a2a20"/></radialGradient><radialGradient id="abedynka-jablka-5kg11" cx="0.35" cy="0.3" r="0.85"><stop offset="0" stop-color="#f7a35c"/><stop offset="0.55" stop-color="#d23f2e"/><stop offset="1" stop-color="#86231f"/></radialGradient><radialGradient id="abedynka-jablka-5kg12" cx="0.35" cy="0.3" r="0.85"><stop offset="0" stop-color="#f0735a"/><stop offset="0.55" stop-color="#c8322a"/><stop offset="1" stop-color="#7e1a1c"/></radialGradient><radialGradient id="abedynka-jablka-5kg13" cx="0.35" cy="0.3" r="0.85"><stop offset="0" stop-color="#f6c46a"/><stop offset="0.55" stop-color="#dd5a32"/><stop offset="1" stop-color="#9a2a20"/></radialGradient>
</defs>
<rect width="800" height="600" fill="url(#bg)"/>
<ellipse cx="400" cy="548" rx="300" ry="26" fill="#5a4630" opacity="0.18"/>
<!-- inner back wall of the carton -->
<path d="M175,300 L205,245 L595,245 L625,300 Z" fill="url(#inner)"/>
<path d="M205,245 L595,245" stroke="#d8a86c" stroke-width="5" stroke-linecap="round"/>
<g transform="translate(300.0,222.0) rotate(-8.0)"><path d="M0,-32.8 C14.7,-44.1 42.0,-39.9 42.0,-8.4 C42.0,23.1 23.1,42.0 8.4,39.9 C3.4,39.1 -3.4,39.1 -8.4,39.9 C-23.1,42.0 -42.0,23.1 -42.0,-8.4 C-42.0,-39.9 -14.7,-44.1 0,-32.8Z" fill="url(#abedynka-jablka-5kg0)" stroke="#9a2a20" stroke-opacity="0.35" stroke-width="1.2"/><path d="M-23.5,-29.4 Q-30.2,0 -18.5,35.7" stroke="#9a2a20" stroke-opacity="0.25" stroke-width="3.4" fill="none"/><path d="M-11.8,-29.4 Q-15.1,0 -9.2,35.7" stroke="#9a2a20" stroke-opacity="0.25" stroke-width="3.4" fill="none"/><path d="M0.0,-29.4 Q0.0,0 0.0,35.7" stroke="#9a2a20" stroke-opacity="0.25" stroke-width="3.4" fill="none"/><path d="M11.8,-29.4 Q15.1,0 9.2,35.7" stroke="#9a2a20" stroke-opacity="0.25" stroke-width="3.4" fill="none"/><path d="M23.5,-29.4 Q30.2,0 18.5,35.7" stroke="#9a2a20" stroke-opacity="0.25" stroke-width="3.4" fill="none"/><ellipse cx="-16.0" cy="-14.7" rx="9.2" ry="5.5" transform="rotate(-35 -16.0 -14.7)" fill="#fff" opacity="0.45"/><path d="M0,-30.2 Q1.7,-42.0 6.7,-49.6" stroke="#5a3a1c" stroke-width="3.8" stroke-linecap="round" fill="none"/></g><g transform="translate(385.0,212.0) rotate(6.0)"><path d="M0,-34.3 C15.4,-46.2 44.0,-41.8 44.0,-8.8 C44.0,24.2 24.2,44.0 8.8,41.8 C3.5,40.9 -3.5,40.9 -8.8,41.8 C-24.2,44.0 -44.0,24.2 -44.0,-8.8 C-44.0,-41.8 -15.4,-46.2 0,-34.3Z" fill="url(#abedynka-jablka-5kg1)" stroke="#7e1a1c" stroke-opacity="0.35" stroke-width="1.2"/><ellipse cx="-16.7" cy="-15.4" rx="9.7" ry="5.7" transform="rotate(-35 -16.7 -15.4)" fill="#fff" opacity="0.45"/><path d="M0,-31.7 Q1.8,-44.0 7.0,-51.9" stroke="#5a3a1c" stroke-width="4.0" stroke-linecap="round" fill="none"/><path d="M4.4,-46.2 C15.4,-63.8 35.2,-59.4 41.8,-52.8 C30.8,-41.8 13.2,-39.6 4.4,-46.2Z" fill="#4f8a3c"/><path d="M5.3,-46.2 Q22.0,-51.9 39.6,-52.8" stroke="#2f5a26" stroke-width="1" fill="none"/></g><g transform="translate(470.0,218.0) rotate(-4.0)"><path d="M0,-32.8 C14.7,-44.1 42.0,-39.9 42.0,-8.4 C42.0,23.1 23.1,42.0 8.4,39.9 C3.4,39.1 -3.4,39.1 -8.4,39.9 C-23.1,42.0 -42.0,23.1 -42.0,-8.4 C-42.0,-39.9 -14.7,-44.1 0,-32.8Z" fill="url(#abedynka-jablka-5kg2)" stroke="#86231f" stroke-opacity="0.35" stroke-width="1.2"/><ellipse cx="-16.0" cy="-14.7" rx="9.2" ry="5.5" transform="rotate(-35 -16.0 -14.7)" fill="#fff" opacity="0.45"/><path d="M0,-30.2 Q1.7,-42.0 6.7,-49.6" stroke="#5a3a1c" stroke-width="3.8" stroke-linecap="round" fill="none"/></g><g transform="translate(545.0,230.0) rotate(10.0)"><path d="M0,-31.2 C14.0,-42.0 40.0,-38.0 40.0,-8.0 C40.0,22.0 22.0,40.0 8.0,38.0 C3.2,37.2 -3.2,37.2 -8.0,38.0 C-22.0,40.0 -40.0,22.0 -40.0,-8.0 C-40.0,-38.0 -14.0,-42.0 0,-31.2Z" fill="url(#abedynka-jablka-5kg3)" stroke="#9a2a20" stroke-opacity="0.35" stroke-width="1.2"/><path d="M-22.4,-28.0 Q-28.8,0 -17.6,34.0" stroke="#9a2a20" stroke-opacity="0.25" stroke-width="3.2" fill="none"/><path d="M-11.2,-28.0 Q-14.4,0 -8.8,34.0" stroke="#9a2a20" stroke-opacity="0.25" stroke-width="3.2" fill="none"/><path d="M0.0,-28.0 Q0.0,0 0.0,34.0" stroke="#9a2a20" stroke-opacity="0.25" stroke-width="3.2" fill="none"/><path d="M11.2,-28.0 Q14.4,0 8.8,34.0" stroke="#9a2a20" stroke-opacity="0.25" stroke-width="3.2" fill="none"/><path d="M22.4,-28.0 Q28.8,0 17.6,34.0" stroke="#9a2a20" stroke-opacity="0.25" stroke-width="3.2" fill="none"/><ellipse cx="-15.2" cy="-14.0" rx="8.8" ry="5.2" transform="rotate(-35 -15.2 -14.0)" fill="#fff" opacity="0.45"/><path d="M0,-28.8 Q1.6,-40.0 6.4,-47.2" stroke="#5a3a1c" stroke-width="3.6" stroke-linecap="round" fill="none"/></g><g transform="translate(230.0,265.0) rotate(6.0)"><path d="M0,-35.1 C15.7,-47.2 45.0,-42.8 45.0,-9.0 C45.0,24.8 24.8,45.0 9.0,42.8 C3.6,41.9 -3.6,41.9 -9.0,42.8 C-24.8,45.0 -45.0,24.8 -45.0,-9.0 C-45.0,-42.8 -15.7,-47.2 0,-35.1Z" fill="url(#abedynka-jablka-5kg4)" stroke="#86231f" stroke-opacity="0.35" stroke-width="1.2"/><ellipse cx="-17.1" cy="-15.7" rx="9.9" ry="5.9" transform="rotate(-35 -17.1 -15.7)" fill="#fff" opacity="0.45"/><path d="M0,-32.4 Q1.8,-45.0 7.2,-53.1" stroke="#5a3a1c" stroke-width="4.0" stroke-linecap="round" fill="none"/></g><g transform="translate(315.0,262.0) rotate(-6.0)"><path d="M0,-36.7 C16.4,-49.4 47.0,-44.6 47.0,-9.4 C47.0,25.9 25.9,47.0 9.4,44.6 C3.8,43.7 -3.8,43.7 -9.4,44.6 C-25.9,47.0 -47.0,25.9 -47.0,-9.4 C-47.0,-44.6 -16.4,-49.4 0,-36.7Z" fill="url(#abedynka-jablka-5kg5)" stroke="#7e1a1c" stroke-opacity="0.35" stroke-width="1.2"/><ellipse cx="-17.9" cy="-16.4" rx="10.3" ry="6.1" transform="rotate(-35 -17.9 -16.4)" fill="#fff" opacity="0.45"/><path d="M0,-33.8 Q1.9,-47.0 7.5,-55.5" stroke="#5a3a1c" stroke-width="4.2" stroke-linecap="round" fill="none"/></g><g transform="translate(405.0,258.0) rotate(4.0)"><path d="M0,-36.7 C16.4,-49.4 47.0,-44.6 47.0,-9.4 C47.0,25.9 25.9,47.0 9.4,44.6 C3.8,43.7 -3.8,43.7 -9.4,44.6 C-25.9,47.0 -47.0,25.9 -47.0,-9.4 C-47.0,-44.6 -16.4,-49.4 0,-36.7Z" fill="url(#abedynka-jablka-5kg6)" stroke="#9a2a20" stroke-opacity="0.35" stroke-width="1.2"/><path d="M-26.3,-32.9 Q-33.8,0 -20.7,39.9" stroke="#9a2a20" stroke-opacity="0.25" stroke-width="3.8" fill="none"/><path d="M-13.2,-32.9 Q-16.9,0 -10.3,39.9" stroke="#9a2a20" stroke-opacity="0.25" stroke-width="3.8" fill="none"/><path d="M0.0,-32.9 Q0.0,0 0.0,39.9" stroke="#9a2a20" stroke-opacity="0.25" stroke-width="3.8" fill="none"/><path d="M13.2,-32.9 Q16.9,0 10.3,39.9" stroke="#9a2a20" stroke-opacity="0.25" stroke-width="3.8" fill="none"/><path d="M26.3,-32.9 Q33.8,0 20.7,39.9" stroke="#9a2a20" stroke-opacity="0.25" stroke-width="3.8" fill="none"/><ellipse cx="-17.9" cy="-16.4" rx="10.3" ry="6.1" transform="rotate(-35 -17.9 -16.4)" fill="#fff" opacity="0.45"/><path d="M0,-33.8 Q1.9,-47.0 7.5,-55.5" stroke="#5a3a1c" stroke-width="4.2" stroke-linecap="round" fill="none"/></g><g transform="translate(495.0,262.0) rotate(-10.0)"><path d="M0,-36.7 C16.4,-49.4 47.0,-44.6 47.0,-9.4 C47.0,25.9 25.9,47.0 9.4,44.6 C3.8,43.7 -3.8,43.7 -9.4,44.6 C-25.9,47.0 -47.0,25.9 -47.0,-9.4 C-47.0,-44.6 -16.4,-49.4 0,-36.7Z" fill="url(#abedynka-jablka-5kg7)" stroke="#86231f" stroke-opacity="0.35" stroke-width="1.2"/><ellipse cx="-17.9" cy="-16.4" rx="10.3" ry="6.1" transform="rotate(-35 -17.9 -16.4)" fill="#fff" opacity="0.45"/><path d="M0,-33.8 Q1.9,-47.0 7.5,-55.5" stroke="#5a3a1c" stroke-width="4.2" stroke-linecap="round" fill="none"/></g><g transform="translate(575.0,270.0) rotate(8.0)"><path d="M0,-33.5 C15.0,-45.1 43.0,-40.9 43.0,-8.6 C43.0,23.7 23.7,43.0 8.6,40.9 C3.4,40.0 -3.4,40.0 -8.6,40.9 C-23.7,43.0 -43.0,23.7 -43.0,-8.6 C-43.0,-40.9 -15.0,-45.1 0,-33.5Z" fill="url(#abedynka-jablka-5kg8)" stroke="#7e1a1c" stroke-opacity="0.35" stroke-width="1.2"/><ellipse cx="-16.3" cy="-15.0" rx="9.5" ry="5.6" transform="rotate(-35 -16.3 -15.0)" fill="#fff" opacity="0.45"/><path d="M0,-31.0 Q1.7,-43.0 6.9,-50.7" stroke="#5a3a1c" stroke-width="3.9" stroke-linecap="round" fill="none"/></g><g transform="translate(225.0,306.0) rotate(-4.0)"><path d="M0,-35.9 C16.1,-48.3 46.0,-43.7 46.0,-9.2 C46.0,25.3 25.3,46.0 9.2,43.7 C3.7,42.8 -3.7,42.8 -9.2,43.7 C-25.3,46.0 -46.0,25.3 -46.0,-9.2 C-46.0,-43.7 -16.1,-48.3 0,-35.9Z" fill="url(#abedynka-jablka-5kg9)" stroke="#7e1a1c" stroke-opacity="0.35" stroke-width="1.2"/><ellipse cx="-17.5" cy="-16.1" rx="10.1" ry="6.0" transform="rotate(-35 -17.5 -16.1)" fill="#fff" opacity="0.45"/><path d="M0,-33.1 Q1.8,-46.0 7.4,-54.3" stroke="#5a3a1c" stroke-width="4.1" stroke-linecap="round" fill="none"/></g><g transform="translate(315.0,304.0) rotate(8.0)"><path d="M0,-37.4 C16.8,-50.4 48.0,-45.6 48.0,-9.6 C48.0,26.4 26.4,48.0 9.6,45.6 C3.8,44.6 -3.8,44.6 -9.6,45.6 C-26.4,48.0 -48.0,26.4 -48.0,-9.6 C-48.0,-45.6 -16.8,-50.4 0,-37.4Z" fill="url(#abedynka-jablka-5kg10)" stroke="#9a2a20" stroke-opacity="0.35" stroke-width="1.2"/><path d="M-26.9,-33.6 Q-34.6,0 -21.1,40.8" stroke="#9a2a20" stroke-opacity="0.25" stroke-width="3.8" fill="none"/><path d="M-13.4,-33.6 Q-17.3,0 -10.6,40.8" stroke="#9a2a20" stroke-opacity="0.25" stroke-width="3.8" fill="none"/><path d="M0.0,-33.6 Q0.0,0 0.0,40.8" stroke="#9a2a20" stroke-opacity="0.25" stroke-width="3.8" fill="none"/><path d="M13.4,-33.6 Q17.3,0 10.6,40.8" stroke="#9a2a20" stroke-opacity="0.25" stroke-width="3.8" fill="none"/><path d="M26.9,-33.6 Q34.6,0 21.1,40.8" stroke="#9a2a20" stroke-opacity="0.25" stroke-width="3.8" fill="none"/><ellipse cx="-18.2" cy="-16.8" rx="10.6" ry="6.2" transform="rotate(-35 -18.2 -16.8)" fill="#fff" opacity="0.45"/><path d="M0,-34.6 Q1.9,-48.0 7.7,-56.6" stroke="#5a3a1c" stroke-width="4.3" stroke-linecap="round" fill="none"/></g><g transform="translate(405.0,302.0) rotate(-6.0)"><path d="M0,-37.4 C16.8,-50.4 48.0,-45.6 48.0,-9.6 C48.0,26.4 26.4,48.0 9.6,45.6 C3.8,44.6 -3.8,44.6 -9.6,45.6 C-26.4,48.0 -48.0,26.4 -48.0,-9.6 C-48.0,-45.6 -16.8,-50.4 0,-37.4Z" fill="url(#abedynka-jablka-5kg11)" stroke="#86231f" stroke-opacity="0.35" stroke-width="1.2"/><ellipse cx="-18.2" cy="-16.8" rx="10.6" ry="6.2" transform="rotate(-35 -18.2 -16.8)" fill="#fff" opacity="0.45"/><path d="M0,-34.6 Q1.9,-48.0 7.7,-56.6" stroke="#5a3a1c" stroke-width="4.3" stroke-linecap="round" fill="none"/><path d="M4.8,-50.4 C16.8,-69.6 38.4,-64.8 45.6,-57.6 C33.6,-45.6 14.4,-43.2 4.8,-50.4Z" fill="#4f8a3c"/><path d="M5.8,-50.4 Q24.0,-56.6 43.2,-57.6" stroke="#2f5a26" stroke-width="1" fill="none"/></g><g transform="translate(495.0,304.0) rotate(5.0)"><path d="M0,-37.4 C16.8,-50.4 48.0,-45.6 48.0,-9.6 C48.0,26.4 26.4,48.0 9.6,45.6 C3.8,44.6 -3.8,44.6 -9.6,45.6 C-26.4,48.0 -48.0,26.4 -48.0,-9.6 C-48.0,-45.6 -16.8,-50.4 0,-37.4Z" fill="url(#abedynka-jablka-5kg12)" stroke="#7e1a1c" stroke-opacity="0.35" stroke-width="1.2"/><ellipse cx="-18.2" cy="-16.8" rx="10.6" ry="6.2" transform="rotate(-35 -18.2 -16.8)" fill="#fff" opacity="0.45"/><path d="M0,-34.6 Q1.9,-48.0 7.7,-56.6" stroke="#5a3a1c" stroke-width="4.3" stroke-linecap="round" fill="none"/></g><g transform="translate(580.0,310.0) rotate(-8.0)"><path d="M0,-34.3 C15.4,-46.2 44.0,-41.8 44.0,-8.8 C44.0,24.2 24.2,44.0 8.8,41.8 C3.5,40.9 -3.5,40.9 -8.8,41.8 C-24.2,44.0 -44.0,24.2 -44.0,-8.8 C-44.0,-41.8 -15.4,-46.2 0,-34.3Z" fill="url(#abedynka-jablka-5kg13)" stroke="#9a2a20" stroke-opacity="0.35" stroke-width="1.2"/><path d="M-24.6,-30.8 Q-31.7,0 -19.4,37.4" stroke="#9a2a20" stroke-opacity="0.25" stroke-width="3.5" fill="none"/><path d="M-12.3,-30.8 Q-15.8,0 -9.7,37.4" stroke="#9a2a20" stroke-opacity="0.25" stroke-width="3.5" fill="none"/><path d="M0.0,-30.8 Q0.0,0 0.0,37.4" stroke="#9a2a20" stroke-opacity="0.25" stroke-width="3.5" fill="none"/><path d="M12.3,-30.8 Q15.8,0 9.7,37.4" stroke="#9a2a20" stroke-opacity="0.25" stroke-width="3.5" fill="none"/><path d="M24.6,-30.8 Q31.7,0 19.4,37.4" stroke="#9a2a20" stroke-opacity="0.25" stroke-width="3.5" fill="none"/><ellipse cx="-16.7" cy="-15.4" rx="9.7" ry="5.7" transform="rotate(-35 -16.7 -15.4)" fill="#fff" opacity="0.45"/><path d="M0,-31.7 Q1.8,-44.0 7.0,-51.9" stroke="#5a3a1c" stroke-width="4.0" stroke-linecap="round" fill="none"/></g>
<!-- side and front walls -->
<path d="M150,318 L175,300 L175,515 L150,540 Z" fill="url(#side)"/>
<path d="M650,318 L625,300 L625,515 L650,540 Z" fill="url(#side)"/>
<path d="M150,318 L650,318 L650,540 L150,540 Z" fill="url(#front)"/>
<path d="M150,318 L650,318" stroke="#e0b47a" stroke-width="5" stroke-linecap="round"/>
<g stroke="#8f6234" stroke-opacity="0.25" stroke-width="1.5"><path d="M150,335 L650,335"/><path d="M150,349 L650,349"/><path d="M150,363 L650,363"/><path d="M150,377 L650,377"/><path d="M150,391 L650,391"/><path d="M150,405 L650,405"/><path d="M150,419 L650,419"/><path d="M150,433 L650,433"/><path d="M150,447 L650,447"/><path d="M150,461 L650,461"/><path d="M150,475 L650,475"/><path d="M150,489 L650,489"/><path d="M150,503 L650,503"/><path d="M150,517 L650,517"/><path d="M150,531 L650,531"/></g>
<rect x="355" y="338" width="90" height="22" rx="11" fill="#6e4a26" opacity="0.8"/>
<!-- label -->
<rect x="272" y="392" width="256" height="118" rx="10" fill="#fbf7ef"/>
<rect x="272" y="392" width="256" height="118" rx="10" fill="none" stroke="#2f5a33" stroke-width="3"/>
<text x="400" y="452" text-anchor="middle" font-family="Georgia, 'Times New Roman', serif" font-size="50" font-weight="700" fill="#1f3a22">5 kg</text>
<text x="400" y="488" text-anchor="middle" font-family="Arial, Helvetica, sans-serif" font-size="21" font-weight="600" letter-spacing="1.5" fill="#2f5a33">JABLKA</text>
</svg>
